<svg width="132" height="113" viewBox="0 0 132 113" fill="none" xmlns="http://www.w3.org/2000/svg">
<path d="M10.1358 76.6319H121.255C122.393 76.6319 123.315 75.7359 123.315 74.6306V9.84568C123.315 8.74039 122.393 7.84445 121.255 7.84445H10.1358C8.99779 7.84445 8.07534 8.74037 8.07534 9.84568V74.6306C8.07534 75.7359 8.99776 76.6319 10.1358 76.6319ZM12.1972 11.8469H119.195V72.6266L12.1972 72.6275V11.8469ZM129.329 0H2.06043C0.922447 0 0 0.895918 0 2.00123V82.4742C0 83.5795 0.922422 84.4754 2.06043 84.4754H42.856C42.018 89.8537 39.6499 94.7702 35.5281 99.7364H30.7354C27.0339 99.7364 24.023 102.662 24.023 106.256V110.774C24.023 111.88 24.9454 112.775 26.0834 112.775H105.306C106.444 112.775 107.366 111.88 107.366 110.774V106.259C107.366 102.664 104.354 99.7393 100.654 99.7393H95.8619C91.7391 94.7721 89.3729 89.8566 88.534 84.4783H129.33C130.468 84.4783 131.39 83.5824 131.39 82.4771L131.389 2.00171C131.391 0.896424 130.468 0.000483513 129.329 0.000483513L129.329 0ZM103.244 106.258V108.775H28.1455V106.258C28.1455 104.87 29.3068 103.742 30.7351 103.742H100.656C102.083 103.74 103.244 104.87 103.244 106.258H103.244ZM90.696 99.7371H40.6934C44.2375 94.8387 46.2873 89.8856 47.0213 84.4761H84.3667C85.1017 89.8856 87.1514 94.8397 90.6955 99.7371H90.696ZM127.268 80.4718H4.12109V4.00409H127.271L127.268 80.4718ZM36.1669 19.4314C36.1669 20.5367 35.2445 21.4326 34.1065 21.4326H21.7885C20.6505 21.4326 19.7281 20.5367 19.7281 19.4314C19.7281 18.3261 20.6505 17.4302 21.7885 17.4302H34.1045C35.2435 17.4302 36.1669 18.3261 36.1669 19.4314ZM36.1669 30.835C36.1669 31.9403 35.2445 32.8362 34.1065 32.8362H21.7885C20.6505 32.8362 19.7281 31.9403 19.7281 30.835C19.7281 29.7297 20.6505 28.8338 21.7885 28.8338H34.1045C35.2435 28.8319 36.1669 29.7297 36.1669 30.835ZM36.1669 42.237C36.1669 43.3423 35.2445 44.2382 34.1065 44.2382H21.7885C20.6505 44.2382 19.7281 43.3423 19.7281 42.237C19.7281 41.1317 20.6505 40.2357 21.7885 40.2357H34.1045C35.2435 40.2357 36.1669 41.1317 36.1669 42.237ZM36.1669 53.6406C36.1669 54.7459 35.2445 55.6418 34.1065 55.6418H21.7885C20.6505 55.6418 19.7281 54.7459 19.7281 53.6406C19.7281 52.5353 20.6505 51.6394 21.7885 51.6394H34.1045C35.2435 51.6375 36.1669 52.5344 36.1669 53.6406ZM36.1669 65.0425C36.1669 66.1478 35.2445 67.0438 34.1065 67.0438H21.7885C20.6505 67.0438 19.7281 66.1479 19.7281 65.0425C19.7281 63.9372 20.6505 63.0413 21.7885 63.0413H34.1045C35.2435 63.0413 36.1669 63.9382 36.1669 65.0425ZM44.5378 19.4319V65.045C44.5378 66.1503 43.6154 67.0462 42.4774 67.0462C41.3394 67.0462 40.4169 66.1503 40.4169 65.045V19.4319C40.4169 18.3266 41.3394 17.4306 42.4774 17.4306C43.6154 17.4306 44.5378 18.3266 44.5378 19.4319ZM60.4688 21.435H52.9641C51.8262 21.435 50.9037 20.5391 50.9037 19.4337C50.9037 18.3284 51.8261 17.4325 52.9641 17.4325H60.4688C61.6067 17.4325 62.5292 18.3284 62.5292 19.4337C62.5292 20.5391 61.6087 21.435 60.4688 21.435ZM66.4909 19.4319C66.4909 18.3266 67.4133 17.4306 68.5513 17.4306H76.0559C77.1939 17.4306 78.1164 18.3266 78.1164 19.4319C78.1164 20.5372 77.194 21.4331 76.0559 21.4331H68.5513C67.4143 21.435 66.4909 20.5381 66.4909 19.4319ZM82.0801 19.4319C82.0801 18.3266 83.0025 17.4306 84.1405 17.4306H91.6451C92.7831 17.4306 93.7055 18.3266 93.7055 19.4319C93.7055 20.5372 92.7831 21.4331 91.6451 21.4331H84.1405C83.0015 21.435 82.0801 20.5381 82.0801 19.4319ZM109.294 19.4319C109.294 20.5371 108.371 21.4331 107.233 21.4331H99.7286C98.5906 21.4331 97.6682 20.5372 97.6682 19.4319C97.6682 18.3266 98.5906 17.4306 99.7286 17.4306H107.233C108.371 17.4306 109.294 18.3266 109.294 19.4319ZM84.2774 36.9043H76.8377C75.6997 36.9043 74.7773 37.8002 74.7773 38.9055V63.1136C74.7773 64.2188 75.6997 65.1148 76.8377 65.1148H84.2774C85.4154 65.1148 86.3379 64.2189 86.3379 63.1136V38.9055C86.3398 37.7993 85.4154 36.9043 84.2774 36.9043ZM82.217 61.1123H78.8991V40.9069H82.217V61.1123ZM68.1349 45.2131H60.6952C59.5572 45.2131 58.6347 46.109 58.6347 47.2143V63.1128C58.6347 64.2181 59.5572 65.1141 60.6952 65.1141H68.1349C69.2729 65.1141 70.1954 64.2181 70.1954 63.1128V47.2162C70.1963 46.1109 69.2729 45.2131 68.1349 45.2131ZM66.0745 61.1123H62.7566V49.2172H66.0745V61.1123ZM100.42 28.8333H92.9799C91.8419 28.8333 90.9194 29.7293 90.9194 30.8346V63.1136C90.9194 64.2188 91.8419 65.1148 92.9799 65.1148H100.42C101.558 65.1148 102.48 64.2189 102.48 63.1136V30.8346C102.482 29.7312 101.559 28.8333 100.42 28.8333ZM98.3592 61.1123H95.0403V32.8362H98.3582V61.1123H98.3592Z" fill="black"/>
</svg>
