<svg width="119" height="120" viewBox="0 0 119 120" fill="none" xmlns="http://www.w3.org/2000/svg">
<path d="M109.393 19.3201H95.9588V5.88595H94.0396C75.4485 5.88595 60.3172 0.306562 60.168 0.249316L59.4946 0L58.8229 0.251027C58.6713 0.306717 43.5407 5.88591 24.9491 5.88591H23.03V19.3201H9.59582C4.30441 19.3201 0 23.6245 0 28.9159V98.0057C0 103.297 4.30441 107.602 9.59582 107.602H34.5449V115.278H26.8683V119.117H92.1199V115.278H84.4432V107.602H109.392C114.684 107.602 118.988 103.297 118.988 98.0057V28.9159C118.988 23.6245 114.684 19.3201 109.392 19.3201L109.393 19.3201ZM26.8689 9.70542C43.2684 9.39269 56.3955 5.16632 59.4947 4.08589C62.5945 5.16457 75.7209 9.39265 92.1205 9.70542V43.0616C92.1205 55.8206 84.4361 67.0544 72.5432 71.6801L59.4947 76.754L46.4461 71.6793C34.5532 67.0553 26.8689 55.8221 26.8689 43.0607V9.70542ZM45.0547 75.2553L59.4947 80.873L73.9347 75.2561C87.3149 70.0547 95.9579 57.4165 95.9579 43.0603V30.8333H107.473V84.5699H11.5147V30.8333H23.0297V43.0603C23.0297 57.4154 31.6736 70.0536 45.0529 75.254L45.0547 75.2553ZM9.59731 23.1571H23.0315V26.9954H7.67815V88.4087H111.313V26.9954H95.9597V23.1571H109.394C112.568 23.1571 115.151 25.7402 115.151 28.9146V92.247H3.83982V28.9146C3.83982 25.7402 6.4229 23.1571 9.59731 23.1571ZM80.6064 115.277H38.3848V107.6H80.6064V115.277ZM109.394 103.762H9.59731C6.4229 103.762 3.83982 101.179 3.83982 98.0045V96.0853H115.151V98.0045C115.151 101.179 112.568 103.762 109.394 103.762Z" fill="black"/>
<path d="M49.8989 65.38L59.4947 69.3778L69.0905 65.38C78.4172 61.4954 84.4438 52.4547 84.4438 42.3501V17.5874L82.72 17.4109C74.8172 16.6046 68.142 14.3865 63.2654 12.7663C62.0582 12.3653 60.9812 12.0063 60.0491 11.7262L59.4947 11.5574L58.9404 11.7262C58.0074 12.0063 56.9313 12.3653 55.7241 12.7663C50.8475 14.3864 44.1723 16.6046 36.2695 17.4109L34.5457 17.5874V42.3501C34.5457 52.4547 40.5722 61.4954 49.8989 65.38ZM38.3839 21.0309C45.9739 20.0525 52.507 17.8815 56.9346 16.4096C57.8711 16.0968 58.727 15.8124 59.4947 15.5725C60.2623 15.8124 61.1182 16.0968 62.0547 16.4096C66.4826 17.8832 73.0155 20.0525 80.6055 21.0309V42.3507C80.6055 50.9003 75.506 58.5489 67.6126 61.838L59.4947 65.2214L51.3767 61.838C43.4834 58.5489 38.3839 50.9005 38.3839 42.3507V21.0309Z" fill="black"/>
<path d="M57.5755 26.9967H61.4139V30.835H57.5755V26.9967Z" fill="black"/>
<path d="M65.2522 26.9967H69.0905V30.835H65.2522V26.9967Z" fill="black"/>
<path d="M49.8989 26.9967H53.7372V30.835H49.8989V26.9967Z" fill="black"/>
</svg>
