<svg width="132" height="110" viewBox="0 0 132 110" fill="none" xmlns="http://www.w3.org/2000/svg">
<path d="M120.577 0H10.5769C4.74451 0 0 4.74451 0 10.5769V86.7308C0 92.5632 4.74451 97.3077 10.5769 97.3077H38.0769V105.769H29.6154V110H101.538V105.769H93.0769V97.3077H120.577C126.409 97.3077 131.154 92.5632 131.154 86.7308V10.5769C131.154 4.74451 126.409 0 120.577 0ZM10.5769 4.23077H120.577C124.076 4.23077 126.923 7.07796 126.923 10.5769V80.3846H74.0385V63.4615H78.2692V50.7692H67.6923V46.5385C67.6923 44.2049 65.7951 42.3077 63.4615 42.3077H27.5V25.3846H31.7308V38.0769H99.4231V8.46154H31.7308V21.1538H27.5C25.1665 21.1538 23.2692 23.0511 23.2692 25.3846V42.3077C23.2692 44.6412 25.1665 46.5385 27.5 46.5385H63.4615V50.7692H52.8846V63.4615H57.1154V80.3846H4.23077V10.5769C4.23077 7.07796 7.07796 4.23077 10.5769 4.23077ZM57.1154 59.2308V55H74.0385V59.2308H57.1154ZM61.3462 63.4615H69.8077V93.0769C69.8077 95.4104 67.9105 97.3077 65.5769 97.3077C63.2434 97.3077 61.3462 95.4104 61.3462 93.0769V63.4615ZM95.1923 25.3846H90.9615V29.6154H95.1923V33.8462H35.9615V29.6154H86.7308V25.3846H35.9615V12.6923H95.1923V25.3846ZM4.23077 86.7308V84.6154H57.1154V93.0769H10.5769C7.07796 93.0769 4.23077 90.2297 4.23077 86.7308ZM88.8462 105.769H42.3077V97.3077H58.2911C59.7595 99.8254 62.4585 101.538 65.5769 101.538C68.6954 101.538 71.3941 99.8254 72.8628 97.3077H88.8462V105.769ZM120.577 93.0769H74.0385V84.6154H126.923V86.7308C126.923 90.2297 124.076 93.0769 120.577 93.0769Z" fill="black"/>
<path d="M95.1923 69.8077C95.1923 70.973 94.2442 71.9231 93.0769 71.9231C91.9097 71.9231 90.9615 70.973 90.9615 69.8077V63.4615H88.8462C87.6789 63.4615 86.7308 62.5115 86.7308 61.3461V50.7692H82.5V61.3461C82.5 64.1046 84.2688 66.4572 86.7308 67.3306V69.8077C86.7308 73.3066 89.578 76.1538 93.0769 76.1538C96.5759 76.1538 99.4231 73.3066 99.4231 69.8077V42.3077H95.1923V69.8077Z" fill="black"/>
<path d="M38.0769 76.1538C41.5759 76.1538 44.4231 73.3067 44.4231 69.8077V58.8691C46.8851 57.9955 48.6539 55.6431 48.6539 52.8846V50.7692H44.4231V52.8846C44.4231 54.05 43.4749 55 42.3077 55H40.1923V69.8077C40.1923 70.973 39.2442 71.9231 38.0769 71.9231C36.9097 71.9231 35.9615 70.973 35.9615 69.8077V50.7692H31.7308V69.8077C31.7308 73.3067 34.578 76.1538 38.0769 76.1538Z" fill="black"/>
</svg>
