<svg width="120" height="115" viewBox="0 0 120 115" fill="none" xmlns="http://www.w3.org/2000/svg">
<path d="M113.04 68.0028C115.914 65.0004 119.173 61.6139 119.173 57.1208C119.173 52.6277 115.914 49.2413 113.04 46.2389C111.389 44.7833 110.03 43.0274 109.036 41.0631C108.654 38.789 108.704 36.4626 109.185 34.2065C109.718 30.1602 110.336 25.5814 107.801 22.0886C105.246 18.5539 100.667 17.7228 96.6416 16.9985C94.3732 16.7722 92.1684 16.1143 90.1461 15.0609C88.5518 13.4865 87.272 11.6212 86.3766 9.56677C84.4172 5.9255 82.203 1.79357 78.0073 0.430373C73.9611 -0.890181 69.8292 1.09016 66.1881 2.83664C64.1555 4.02124 61.9145 4.80177 59.5863 5.13737C57.258 4.80177 55.0173 4.02124 52.9845 2.83664C49.3433 1.09016 45.2113 -0.890059 41.1653 0.430373C36.9699 1.79371 34.7556 5.92452 32.7961 9.56677C31.9081 11.626 30.6284 13.4923 29.0265 15.0609C27.011 16.1115 24.8138 16.7694 22.552 16.9985C18.5058 17.7229 13.927 18.5529 11.3714 22.0886C8.83684 25.5817 9.4548 30.1602 9.9872 34.2065C10.4683 36.4625 10.5187 38.7889 10.1365 41.0631C9.14297 43.0273 7.78342 44.7832 6.13303 46.2389C3.25818 49.2413 0 52.6277 0 57.1208C0 61.6139 3.25818 65.0004 6.13303 68.0028C7.78347 69.4583 9.14297 71.2142 10.1365 73.1786C10.5186 75.4527 10.4683 77.779 9.9872 80.0352C9.4548 84.0815 8.83682 88.6603 11.3714 92.1531C13.927 95.6877 18.5055 96.5189 22.5311 97.2432C24.7995 97.4695 27.0043 98.1274 29.0265 99.1807C30.6209 100.755 31.9007 102.62 32.7961 104.675C34.7555 108.316 36.9696 112.448 41.1653 113.811C45.2116 115.132 49.3435 113.152 52.9845 111.405C55.0172 110.22 57.2581 109.44 59.5863 109.104C61.9146 109.44 64.1554 110.22 66.1881 111.405C68.9651 112.991 72.0532 113.958 75.2391 114.237C76.1784 114.243 77.113 114.099 78.0076 113.811C82.203 112.448 84.4174 108.317 86.3768 104.675C87.2648 102.616 88.5445 100.749 90.1464 99.1808C92.1619 98.1303 94.3591 97.4724 96.6209 97.2433C100.667 96.5188 105.246 95.6888 107.801 92.1531C110.336 88.6601 109.718 84.0815 109.186 80.0353C108.705 77.7792 108.654 75.4528 109.036 73.1787C110.03 71.2145 111.389 69.4585 113.04 68.0029L113.04 68.0028ZM108.418 63.5953C106.05 65.6936 104.187 68.2994 102.967 71.2191C102.206 74.3926 102.17 77.6972 102.86 80.887C103.265 83.8894 103.67 86.9772 102.627 88.4044C101.583 89.8315 98.474 90.4067 95.4925 90.96L95.4915 90.9609C92.2667 91.2927 89.1541 92.3318 86.3771 94.0061C83.9556 96.1158 82.0285 98.7331 80.7335 101.673C79.2855 104.377 77.7948 107.167 76.0274 107.742C74.4302 108.275 71.6409 106.933 68.9568 105.634C66.0866 103.983 62.8866 102.987 59.5865 102.716C56.2865 102.987 53.0865 103.983 50.2163 105.634C47.5334 106.932 44.743 108.253 43.1457 107.742C41.3783 107.167 39.8875 104.378 38.4396 101.673C37.1447 98.7331 35.2177 96.1158 32.796 94.0061C30.019 92.3319 26.9064 91.2929 23.6815 90.9609C20.7001 90.4076 17.5913 89.8533 16.5475 88.4054C15.5036 86.9574 15.9086 83.8904 16.3136 80.888L16.3126 80.887C17.0029 77.6975 16.9667 74.3926 16.2062 71.2191C14.9864 68.2994 13.123 65.6935 10.7548 63.5953C8.60337 61.3592 6.38902 59.0375 6.38902 57.1208C6.38902 55.2042 8.6042 52.8825 10.7548 50.6463C13.1231 48.5481 14.9866 45.9422 16.2062 43.0225C16.9667 39.8491 17.0029 36.5444 16.3126 33.3546C15.9076 30.3522 15.5036 27.2644 16.5465 25.8372C17.5904 24.4102 20.6991 23.835 23.6806 23.2817L23.6815 23.2807C26.9064 22.9489 30.019 21.9098 32.796 20.2355C35.2175 18.1258 37.1446 15.5085 38.4396 12.5689C39.8876 9.86416 41.3782 7.07473 43.1457 6.49937C44.7429 5.96697 47.5322 7.30843 50.2163 8.60808C53.0865 10.2585 56.2865 11.2549 59.5865 11.5258C62.8866 11.2548 66.0866 10.2585 68.9568 8.60808C71.6397 7.30941 74.4301 5.98878 76.0274 6.49937C77.7948 7.07456 79.2856 9.86392 80.7335 12.5689C82.0283 15.5085 83.9554 18.1258 86.3771 20.2355C89.1541 21.9097 92.2667 22.9487 95.4915 23.2807C98.473 23.834 101.582 24.3883 102.626 25.8362C103.67 27.2842 103.265 30.3513 102.859 33.3536L102.86 33.3546C102.17 36.5441 102.206 39.8491 102.967 43.0225C104.187 45.9422 106.05 48.5481 108.418 50.6463C110.569 52.8824 112.784 55.2042 112.784 57.1208C112.784 59.0375 110.57 61.3591 108.418 63.5953ZM59.5857 15.1682C48.4594 15.1682 37.7877 19.5881 29.9196 27.4562C22.0514 35.3234 17.6316 45.9953 17.6316 57.1223C17.6316 68.2493 22.0514 78.9203 29.9196 86.7884C37.7867 94.6565 48.4586 99.0764 59.5857 99.0764C70.7127 99.0764 81.3836 94.6565 89.2517 86.7884C97.1199 78.9212 101.54 68.2493 101.54 57.1223C101.525 45.9999 97.0999 35.3375 89.2354 27.4732C81.371 19.609 70.7088 15.1833 59.5864 15.169L59.5857 15.1682ZM77.6664 48.1979L57.6481 74.201V74.202C57.0377 74.9816 56.1031 75.437 55.1135 75.437C54.119 75.4379 53.1807 74.973 52.5789 74.1801L41.484 59.6988C40.4135 58.2936 40.6854 56.2865 42.0905 55.2161C43.4966 54.1456 45.5035 54.4175 46.5741 55.8236L55.1135 67.0042L72.6192 44.303V44.3021C73.1135 43.5729 73.8874 43.0804 74.7583 42.9406C75.6282 42.8018 76.5171 43.0281 77.215 43.5662C77.9128 44.1053 78.3568 44.9086 78.4424 45.7852C78.528 46.6627 78.2466 47.5364 77.6666 48.1991L77.6664 48.1979Z" fill="black"/>
</svg>
