<?xml version="1.0" encoding="UTF-8" standalone="no"?>
<svg
   width="245.3309"
   height="69.038803"
   viewBox="0 0 369.77777 104.05952"
   class="css-1j8o68f"
   version="1.1"
   id="svg18"
   sodipodi:docname="2782040080f541374411be76ef3058cd.svg"
   xmlns:inkscape="http://www.inkscape.org/namespaces/inkscape"
   xmlns:sodipodi="http://sodipodi.sourceforge.net/DTD/sodipodi-0.dtd"
   xmlns="http://www.w3.org/2000/svg"
   xmlns:svg="http://www.w3.org/2000/svg">
  <sodipodi:namedview
     id="namedview20"
     pagecolor="#ffffff"
     bordercolor="#666666"
     borderopacity="1.0"
     inkscape:pageshadow="2"
     inkscape:pageopacity="0.0"
     inkscape:pagecheckerboard="0" />
  <defs
     id="SvgjsDefs1377" />
  <g
     id="SvgjsG1378"
     featurekey="symbolFeature-0"
     transform="matrix(1.0802469,0,0,1.0802469,-5.401235,-1.9259155)"
     fill="#ffffff">
    <g
       id="g9">
      <path
         d="M 80,28 V 63 H 20 V 28 M 84,24 H 16 v 43 h 68 z"
         id="path3" />
      <polygon
         points="42.705,74 42.379,74 5,74 5.964,76 94.035,76 95,74 57.614,74 57.29,74 "
         id="polygon5" />
      <polygon
         points="5,72 95,72 84.555,69 15.608,69 "
         id="polygon7" />
    </g>
  </g>
  <g
     id="SvgjsG1379"
     featurekey="nameFeature-0"
     transform="matrix(1.7279681,0,0,1.7279681,112.06441,-19.747048)"
     fill="#ffffff">
    <path
       d="m 28.571,15.714 v 6.9714 l -3.0286,3.0286 3.0286,3.0286 v 6.9714 l -4.2857,4.2857 H 2.8563 v -28.571 h 21.429 z m -7.428,6.857 V 17.7139 H 10.286 v 4.8571 z m 0,11.1433 V 28.8572 H 10.286 v 4.8571 z M 33.428571,40 v -5.7143 h 2.2857 v -17.143 h -2.2857 v -5.7143 h 12 v 5.7143 h -2.2857 v 17.143 h 2.2857 V 40 Z m 41.143,-22.286 h -16.857 v 4.8571 h 14.571 v 6.2857 h -14.571 v 4.8571 h 16.857 v 6.2857 h -20 l -4.2857,-4.2857 v -24.286 h 24.286 v 6.2857 z m 5.7141,18.0003 v -24.286 h 7.4286 v 22.286 H 103.14327 V 40 H 84.572271 Z M 106.57143,40 v -5.7143 h 2.2857 v -17.143 h -2.2857 v -5.7143 h 12 v 5.7143 h -2.2857 v 17.143 h 2.2857 V 40 Z m 42.571,-28.571 v 3.4286 l -6.6857,10.857 6.6857,10.857 v 3.4286 h -6.8571 l -6.5143,-11.143 h -4.9143 v 11.143 h -7.4286 v -28.571 h 7.4286 v 11.143 h 4.9143 l 6.5143,-11.143 h 6.8571 z"
       id="path12" />
  </g>
  <g
     id="SvgjsG1380"
     featurekey="nameFeature-1"
     transform="matrix(1.5770455,0,0,1.5770455,112.49454,40.977063)"
     fill="#ffffff">
    <path
       d="M 20.857,17.714 H 10.286 v 4.8571 h 14 l 4.2857,4.2857 v 8.8571 L 24.286,39.9996 H 7.143 L 2.8573,35.7139 v -4.2857 h 5.4286 l 2.2857,2.2857 h 10.571 v -4.8571 h -14 L 2.8569,24.5711 V 15.714 l 4.2857,-4.2857 h 17.143 l 4.2857,4.2857 v 4.2857 h -5.4286 z m 11.428711,0 v -6.2857 h 24.286 v 6.2857 h -8.4571 V 40 h -7.4286 V 17.714 h -8.4 z m 27.99996,18.0003 v -24.286 h 7.4286 v 22.286 h 10.286 v -22.286 h 7.4286 v 24.286 L 81.143171,40 h -16.571 z m 51.714039,-24.2853 4.2857,4.2857 v 20 l -4.2857,4.2857 H 91.142714 v -28.571 h 20.856996 z m -3.143,22.2853 v -16 H 98.570714 v 16 z M 121.14286,40 v -5.7143 h 2.2857 v -17.143 h -2.2857 v -5.7143 h 12 v 5.7143 h -2.2857 v 17.143 h 2.2857 V 40 Z m 37.714,-28.571 4.2857,4.2857 v 20 l -4.2857,4.2857 h -16.571 l -4.2857,-4.2857 v -20 l 4.2857,-4.2857 z m -3.143,22.2853 v -16 h -10.286 v 16 z"
       id="path15" />
  </g>
</svg>
