<svg width="178" height="50" viewBox="0 0 178 50" fill="none" xmlns="http://www.w3.org/2000/svg">
<g clip-path="url(#clip0_1_4)">
<path d="M38.9999 13.6081V31.7749H7.79997V13.6081M41.0799 11.5319H5.71997V33.8511H41.0799V11.5319Z" fill="black"/>
<path d="M19.6065 37.4845H19.437H0L0.501279 38.5226H46.2981L46.7999 37.4845H27.3592H27.1907H19.6065Z" fill="black"/>
<path d="M0 36.4464H46.7999L41.3685 34.8892H5.51615L0 36.4464Z" fill="black"/>
<path d="M77.7096 3.55866V9.34686L75.1904 11.8614L77.7096 14.376V20.1642L74.1448 23.7226H56.3203V0.000664333H74.1448L77.7096 3.55866ZM71.531 9.25188V5.21913H62.5003V9.25188H71.531ZM71.531 18.5039V14.4712H62.5003V18.5039H71.531ZM81.7501 23.7228V18.9783H83.6513V4.74488H81.7501V0.000414911H91.7316V4.74488H89.8304V18.9783H91.7316V23.7228H81.7501ZM115.973 5.21922H101.951V9.25196H114.071V14.4708H101.951V18.5036H115.973V23.7225H99.3367L95.7719 20.1642V0H115.973L115.973 5.21922ZM120.725 20.1645V0.000331771H126.905V18.5039H139.738V23.7228H124.291L120.725 20.1645ZM142.59 23.7228V18.9783H144.491V4.74488H142.59V0.000414911H152.571V4.74488H150.67V18.9783H152.571V23.7228H142.59ZM178 0.000912963V2.84761L172.439 11.8619L178 20.8763V23.723H172.296L166.878 14.4712H162.79V23.723H156.611V0.00107924H162.79V9.25288H166.878L172.296 0.00107924L178 0.000912963Z" fill="black"/>
<path d="M69.985 33.1122H61.9601V36.7927H72.5881L75.8415 40.0403V46.7518L72.5881 49.9994H59.5741L56.3206 46.7518V43.5043H60.4417L62.1769 45.2363H70.2018V41.5558H59.5738L56.3203 38.3083V31.5967L59.5738 28.3492H72.5878L75.8412 31.5967V34.8442H71.7201L69.985 33.1122ZM78.661 33.1122V28.3492H97.0975V33.1122H90.6774V49.9997H85.038V33.1122H78.661ZM99.9169 46.7521V28.3492H105.556V45.2366H113.365V28.3492H119.004V46.7521L115.751 49.9997H103.171L99.9169 46.7521ZM139.175 28.3497L142.429 31.5972V46.7524L139.175 50H123.342V28.35L139.175 28.3497ZM136.789 45.2366V33.1124H128.981V45.2366H136.789ZM146.116 49.9997V45.6696H147.851V32.6793H146.116V28.3492H155.226V32.6793H153.491V45.6696H155.226V49.9997H146.116ZM174.747 28.3497L178 31.5972V46.7524L174.747 50H162.167L158.913 46.7524V31.5972L162.167 28.3497H174.747ZM172.361 45.2366V33.1124H164.552V45.2366H172.361Z" fill="black"/>
</g>
<defs>
<clipPath id="clip0_1_4">
<rect width="178" height="50" fill="white"/>
</clipPath>
</defs>
</svg>
