<svg width="150" height="75" viewBox="0 0 150 75" fill="none" xmlns="http://www.w3.org/2000/svg">
<path d="M133.502 39.6342C133.434 42.7557 128.807 45.2764 123.106 45.2764C117.406 45.2764 112.778 42.7556 112.709 39.6342C107.846 40.0778 103.575 42.5569 100.745 46.2077C106.08 50.6923 109.319 57.3767 109.32 64.5068C109.32 65.0533 109.294 65.5697 109.256 66.0687C110.848 66.1288 112.537 66.1265 114.287 66.1265H131.927C141.385 66.1265 149.054 66.1519 149.054 56.6893C149.056 47.7625 142.223 40.4302 133.502 39.6343L133.502 39.6342Z" fill="black"/>
<path d="M110.15 24.1519C110.16 24.2766 110.17 24.3991 110.181 24.5216C111.007 33.8721 116.48 41.0983 123.107 41.0983C129.735 41.0983 135.207 33.8745 136.033 24.5216C136.045 24.3991 136.055 24.2766 136.065 24.1519C136.125 23.7464 136.164 23.3351 136.187 22.9181C136.203 22.6327 136.215 22.3462 136.215 22.0574C136.215 21.3469 136.164 20.6468 136.065 19.9641C135.107 13.3376 129.671 8.26147 123.108 8.26147C116.545 8.26147 111.11 13.3376 110.152 19.9641C110.053 20.6468 110.002 21.3469 110.002 22.0574C110.002 22.3474 110.013 22.6339 110.032 22.9181C110.05 23.3339 110.091 23.7452 110.15 24.1519ZM115.023 16.7133C115.023 16.7133 118.794 18.5455 123.106 18.6622C127.419 18.5444 131.19 16.7133 131.19 16.7133C133.922 17.7912 132.629 25.4783 132.629 25.4795C133.312 25.0024 133.939 24.754 134.447 24.6269C133.695 32.7968 128.906 39.093 123.106 39.093C117.308 39.093 112.517 32.7957 111.765 24.6269C112.276 24.754 112.901 25.0047 113.583 25.4795C113.583 25.4772 112.289 17.7913 115.023 16.7133Z" fill="black"/>
<path d="M13.3144 24.1519C13.3248 24.2767 13.3341 24.3991 13.3456 24.5216C14.1716 33.8745 19.6441 41.0995 26.2706 41.0995C32.897 41.0995 38.3706 33.8733 39.1955 24.5216C39.207 24.3991 39.2174 24.2767 39.2267 24.1519C39.2867 23.7464 39.3249 23.3351 39.3491 22.9192C39.3641 22.6339 39.3757 22.3474 39.3757 22.0585C39.3757 21.3481 39.3249 20.648 39.2267 19.9652C38.2678 13.3388 32.8324 8.26263 26.2704 8.26263C19.7084 8.26263 14.272 13.3388 13.3141 19.9652C13.2148 20.6491 13.1651 21.3481 13.1651 22.0585C13.1651 22.3462 13.1767 22.635 13.1917 22.9192C13.2148 23.3363 13.2552 23.7452 13.3141 24.1519H13.3144ZM18.1874 16.7133C18.1874 16.7133 21.9582 18.5467 26.2707 18.6622C30.5833 18.5467 34.3564 16.7133 34.3564 16.7133C37.0885 17.7912 35.7935 25.4795 35.7935 25.4795C36.4763 25.0047 37.1024 24.7563 37.6119 24.6281C36.8598 32.798 32.0702 39.0965 26.2707 39.0965C20.4726 39.0965 15.6815 32.798 14.9294 24.6281C15.4401 24.7551 16.065 25.0035 16.7478 25.4806C16.749 25.4795 15.4541 17.7913 18.1874 16.7133Z" fill="black"/>
<path d="M48.65 45.6466C45.9502 42.3286 42.0605 40.0195 37.6184 39.4014C37.5884 39.3968 37.5584 39.3944 37.5295 39.3898C37.288 39.3563 37.0454 39.3286 36.8005 39.3055C36.8005 39.3321 36.7936 39.3552 36.7924 39.3806C36.789 39.4534 36.7763 39.5215 36.767 39.5943C36.722 40.0021 36.6018 40.396 36.4112 40.775C35.1381 43.9832 31.0151 50.0608 28.5855 53.5103L28.0853 46.3409C28.7946 45.9781 29.4034 45.3751 29.7939 44.6785C30.0758 44.1748 30.2479 43.6272 30.2479 43.0692C30.2479 43.0692 28.4365 43.8709 26.5881 43.8709C26.4841 43.8709 26.3778 43.8675 26.2716 43.8629C26.1653 43.8675 26.0613 43.8709 25.955 43.8709C24.1066 43.8709 22.2952 43.0692 22.2952 43.0692C22.2952 43.6272 22.4673 44.1759 22.7492 44.6785C23.1397 45.3763 23.7497 45.9781 24.4578 46.3409L23.9576 53.5103C21.5293 50.0608 17.4063 43.9805 16.1319 40.775C15.9413 40.3961 15.82 40.0021 15.7761 39.5943C15.768 39.5215 15.7565 39.4534 15.7507 39.3806C15.7507 39.3552 15.7437 39.3321 15.7426 39.3055C15.4977 39.3286 15.2562 39.3563 15.0136 39.3898C14.9824 39.3944 14.9524 39.3968 14.9224 39.4014C6.49011 40.5716 0 47.8126 0 56.5708C0 66.1503 7.76447 66.1281 17.3439 66.1281H35.2042C36.6783 66.1281 38.1097 66.1281 39.4774 66.0934C39.4393 65.5851 39.4127 65.0618 39.4127 64.505C39.4104 57.0791 42.9199 50.1268 48.65 45.6466Z" fill="black"/>
<path d="M54.6388 74.3929C54.7 74.3929 54.7647 74.3918 54.8248 74.3895C54.6712 74.3906 54.5187 74.3895 54.3662 74.3895C54.4586 74.3895 54.5476 74.3929 54.6388 74.3929Z" fill="black"/>
<path d="M94.0911 74.3929C94.1835 74.3929 94.2702 74.3895 94.3626 74.3895C94.2101 74.3895 94.0576 74.3906 93.9051 74.3895C93.964 74.3918 94.0287 74.3929 94.0911 74.3929Z" fill="black"/>
<path d="M63.3278 74.248C61.5625 74.248 59.8469 74.2931 58.2067 74.3347C59.8494 74.2931 61.558 74.248 63.3278 74.248H85.4045C87.1721 74.248 88.8807 74.2931 90.5236 74.3347C88.8819 74.2954 87.1698 74.248 85.4045 74.248H63.3278Z" fill="black"/>
<path d="M106.708 62.2408C106.669 61.8781 106.63 61.5153 106.574 61.1607C106.539 60.9319 106.49 60.709 106.448 60.4837C106.388 60.1718 106.329 59.861 106.256 59.5549C106.199 59.3134 106.133 59.0708 106.069 58.8317C105.991 58.5521 105.912 58.2749 105.825 58.0022C105.744 57.7504 105.657 57.5008 105.569 57.2524C105.48 57.0041 105.385 56.7557 105.287 56.5119C105.183 56.2497 105.073 55.9932 104.959 55.7368C104.86 55.5196 104.756 55.3058 104.65 55.0944C104.517 54.8206 104.383 54.5491 104.239 54.2846C104.146 54.1136 104.047 53.9496 103.948 53.7832C103.776 53.4851 103.603 53.1883 103.42 52.9006C103.374 52.8255 103.319 52.7585 103.271 52.6857C102.209 51.0857 100.942 49.6381 99.5035 48.3779C99.5023 48.3779 99.5 48.3767 99.4989 48.3744C99.1396 48.0625 98.7722 47.7633 98.3921 47.4756C98.3656 47.456 98.3413 47.434 98.3147 47.4144C97.9404 47.1325 97.5592 46.8657 97.1676 46.608C97.1364 46.5884 97.1063 46.5688 97.0763 46.5468C96.6801 46.2903 96.2746 46.0454 95.8621 45.8144C95.8402 45.8016 95.8205 45.7889 95.7974 45.7797C94.5498 45.0877 93.2386 44.5008 91.8546 44.0653C95.533 44.4766 98.7608 45.1108 98.7608 45.1108C97.9383 44.6603 97.2151 44.0723 96.5728 43.393C91.4664 38.0107 91.6111 26.5944 91.6111 26.5944C92.8934 -1.45403 74.3839 0.0131606 74.3839 0.0131606L74.3712 0.0559049L74.3585 0.0131606C74.3585 0.0131606 55.8479 -1.45284 57.1314 26.5944C57.1314 26.5944 57.2758 37.9841 52.188 43.3731C51.54 44.0605 50.8122 44.6531 49.9815 45.1106C49.9815 45.1106 51.9559 44.9778 54.599 44.9281C51.712 46.2162 49.1682 48.1316 47.1267 50.4896C47.1232 50.4942 47.1198 50.5 47.1152 50.5046C46.7975 50.8743 46.4878 51.2532 46.1944 51.6437C46.1782 51.6668 46.1632 51.6887 46.1482 51.7095C45.8686 52.085 45.5983 52.4685 45.343 52.8602C45.3129 52.9052 45.2852 52.9561 45.2563 53.0023C45.0183 53.3754 44.7896 53.7497 44.5736 54.1379C44.532 54.2141 44.4939 54.295 44.4523 54.3712C44.257 54.734 44.0664 55.1002 43.892 55.4745C43.8412 55.5842 43.7961 55.7009 43.7464 55.8118C43.5928 56.1596 43.438 56.5073 43.3028 56.8654C43.2462 57.0156 43.1988 57.1716 43.1434 57.3229C43.029 57.6475 42.91 57.9756 42.8084 58.3083C42.7506 58.5001 42.7044 58.6988 42.6524 58.894C42.5715 59.1956 42.4849 59.4924 42.4156 59.7963C42.3613 60.0377 42.3232 60.2884 42.2781 60.5334C42.2284 60.7979 42.1718 61.0601 42.1302 61.3282C42.084 61.6401 42.0575 61.9589 42.0239 62.2755C42.002 62.4846 41.9708 62.689 41.9546 62.8993C41.9154 63.4296 41.8946 63.9656 41.8946 64.5074C41.8946 64.9926 41.9165 65.4478 41.9489 65.8891C41.9569 66.0012 41.9673 66.1144 41.9766 66.2241C42.0147 66.625 42.0632 67.012 42.1256 67.3747C42.1302 67.4025 42.1325 67.4314 42.1372 67.4579C42.2088 67.8403 42.2977 68.1996 42.3971 68.5439C42.4237 68.6317 42.4502 68.716 42.4768 68.7992C42.5727 69.0984 42.6801 69.3849 42.798 69.6552C42.813 69.6899 42.8257 69.728 42.8407 69.7626C42.977 70.0572 43.1272 70.3287 43.2901 70.5875C43.3294 70.6522 43.3733 70.7146 43.416 70.7781C43.5616 70.9953 43.7175 71.2021 43.885 71.3962C43.9151 71.4308 43.9428 71.4678 43.9728 71.5002C44.1669 71.7173 44.3749 71.9137 44.5944 72.1009C44.6487 72.1459 44.7053 72.1898 44.763 72.2349C44.9513 72.3851 45.15 72.5283 45.358 72.6589C45.4042 72.6889 45.4492 72.7212 45.4966 72.7501C45.7438 72.9003 46.0038 73.0355 46.2718 73.1591C46.3399 73.1926 46.4093 73.2191 46.4786 73.248C46.705 73.3474 46.9372 73.4363 47.1787 73.5195C47.2468 73.5426 47.3115 73.5657 47.3785 73.5888C47.672 73.6813 47.9735 73.7644 48.2831 73.8384C48.3663 73.858 48.4506 73.873 48.5349 73.8926C48.7879 73.9469 49.0479 73.9966 49.3147 74.0428C49.406 74.0579 49.4938 74.074 49.5862 74.0856C49.9143 74.1364 50.2505 74.1803 50.5948 74.215C50.6976 74.2265 50.8039 74.2346 50.9078 74.245C51.1758 74.2704 51.4496 74.2901 51.7257 74.3074C51.8482 74.3143 51.9672 74.3224 52.0897 74.3293C52.442 74.349 52.8013 74.3628 53.1675 74.3709C53.3015 74.3744 53.4413 74.3755 53.5788 74.379C53.841 74.3825 54.1032 74.3859 54.3724 74.3871C54.5249 74.3871 54.6774 74.3883 54.8311 74.3871C55.3648 74.3871 55.9077 74.3802 56.4623 74.3686C56.6864 74.3652 56.9093 74.3617 57.1346 74.3571C57.4893 74.349 57.8486 74.3409 58.2113 74.3305C59.8529 74.2912 61.5662 74.2439 63.3324 74.2439H85.4091C87.1732 74.2439 88.8877 74.2889 90.5282 74.3305C90.8956 74.3409 91.2606 74.349 91.6211 74.3571C91.8429 74.3617 92.0612 74.3652 92.2784 74.3686C92.8318 74.3802 93.3782 74.3871 93.9096 74.3871C94.0633 74.3883 94.2158 74.3871 94.3671 74.3871C94.634 74.3859 94.8985 74.3825 95.1608 74.379C95.2982 74.3755 95.4369 74.3744 95.572 74.3709C95.9382 74.3605 96.2952 74.3478 96.6464 74.3293C96.7723 74.3224 96.8948 74.3143 97.0172 74.3062C97.2922 74.2901 97.5625 74.2693 97.8271 74.245C97.9333 74.2346 98.0419 74.2265 98.1482 74.215C98.489 74.1803 98.8217 74.1376 99.1487 74.0891C99.2469 74.0729 99.3393 74.0555 99.4352 74.0405C99.6951 73.9955 99.9481 73.9481 100.195 73.8927C100.284 73.873 100.374 73.8557 100.462 73.8349C100.768 73.7621 101.066 73.6789 101.356 73.5877C101.431 73.5623 101.501 73.538 101.574 73.5114C101.807 73.4317 102.032 73.3428 102.253 73.2492C102.328 73.2157 102.403 73.188 102.477 73.1533C102.74 73.0308 102.996 72.8968 103.241 72.749C103.294 72.7154 103.343 72.6831 103.397 72.6484C103.595 72.5214 103.787 72.3816 103.973 72.236C104.033 72.1898 104.094 72.1413 104.152 72.0939C104.369 71.9102 104.573 71.715 104.764 71.499C104.799 71.462 104.829 71.4193 104.864 71.3811C105.025 71.1928 105.177 70.9907 105.321 70.7781C105.364 70.7134 105.409 70.6475 105.452 70.5794C105.612 70.3229 105.764 70.0526 105.899 69.7592C105.917 69.7222 105.932 69.6795 105.947 69.6413C106.065 69.3768 106.169 69.0926 106.262 68.7968C106.292 68.7102 106.318 68.6247 106.342 68.5346C106.443 68.1915 106.533 67.8345 106.602 67.451C106.607 67.4232 106.61 67.3932 106.615 67.3643C106.68 67.0016 106.726 66.6169 106.764 66.2183C106.774 66.1074 106.784 65.9942 106.792 65.881C106.825 65.4408 106.846 64.9868 106.846 64.5016C106.846 63.9297 106.82 63.3671 106.777 62.8103C106.756 62.622 106.726 62.4315 106.708 62.2408ZM86.8362 45.1095C86.7022 45.3579 86.5393 45.6017 86.3591 45.8385C86.3429 45.8581 86.3279 45.8766 86.3129 45.8951C85.9455 46.3676 85.488 46.8112 84.9531 47.2236C84.9335 47.2363 84.9185 47.2537 84.8988 47.2652C84.6389 47.4628 84.3594 47.6499 84.0659 47.8313C84.0243 47.8579 83.9816 47.881 83.9412 47.9064C83.6396 48.0855 83.3266 48.2587 82.9973 48.4216C82.9904 48.4251 82.9823 48.4286 82.9742 48.432C82.6565 48.588 82.318 48.7301 81.9738 48.8676C81.9125 48.893 81.8513 48.9173 81.7901 48.9427C81.4493 49.0732 81.0958 49.1922 80.7319 49.3054C80.6522 49.332 80.5701 49.3539 80.4904 49.3782C80.1277 49.4845 79.7603 49.5838 79.3779 49.6716C79.3594 49.6763 79.3433 49.682 79.3248 49.6843L74.3663 57.7434L69.4079 49.6843C66.7046 49.0744 64.4645 47.9757 63.0378 46.587C62.563 46.1261 62.1783 45.6316 61.8988 45.1118C63.6132 45.2619 65.1611 45.5103 66.2829 45.9031C66.7369 46.0625 67.1123 46.2439 67.4058 46.453C67.616 46.6032 67.7962 46.7649 67.9072 46.9452L67.7535 46.6009L65.1761 40.8522C67.7928 43.4654 70.9559 44.9974 74.3661 44.9974C77.698 44.9974 80.7938 43.5348 83.376 41.0314L81.471 44.9974C81.8984 44.2915 83.1253 43.9369 84.7289 43.7982C85.5202 43.7289 86.3948 43.7093 87.3236 43.7324C87.2427 44.2037 87.0742 44.6659 86.8362 45.1095ZM88.5991 23.8692C88.3207 27.5822 87.3769 31.0028 85.9432 33.8712C83.3393 39.0917 79.1248 42.4836 74.363 42.4836C67.1069 42.4836 61.1101 34.6002 60.1697 24.3761C60.1697 24.3761 65.8997 23.4276 69.3203 22.0771C69.3203 22.0771 75.5194 20.0069 83.0907 14.5552C83.1277 14.5286 83.1658 14.502 83.2005 14.4743C83.2005 14.4743 83.3368 14.6695 83.5297 15.0011C84.1859 16.1274 85.5953 19.4846 82.9336 21.0201L87.7833 21.6381H87.8722L88.7571 21.8022C88.7502 22.5011 88.6982 23.1919 88.5989 23.8689L88.5991 23.8692Z" fill="black"/>
</svg>
