<svg width="21" height="20" viewBox="0 0 21 20" fill="none" xmlns="http://www.w3.org/2000/svg">
<path d="M20.4787 0.259103C20.1332 -0.0863678 19.5726 -0.0863678 19.2271 0.259103L10.7498 8.74816L4.28846 2.29575L2.26067 0.270958C1.91519 -0.0745132 1.3546 -0.0745132 1.00911 0.270958C0.66363 0.616429 0.66363 1.17701 1.00911 1.52249L3.0369 3.54728L9.49824 9.99969L1.0209 18.4888C0.675423 18.8342 0.675423 19.3948 1.0209 19.7403C1.19511 19.9116 1.41931 20 1.64669 20C1.87407 20 2.1012 19.9145 2.27247 19.7403L10.7498 11.2512L16.497 16.9892L19.2393 19.7285C19.4135 19.8998 19.6377 19.9882 19.8651 19.9882C20.0925 19.9882 20.3196 19.9027 20.4909 19.7285C20.8364 19.383 20.8364 18.8224 20.4909 18.477L17.7486 15.7377L12.0014 9.99969L20.4787 1.51063C20.8242 1.16516 20.8242 0.604587 20.4787 0.259103Z" fill="black"/>
</svg>
